<?xml version="1.0" encoding="UTF-8" standalone="no"?>
<svg
   xmlns:dc="http://purl.org/dc/elements/1.1/"
   xmlns:cc="http://creativecommons.org/ns#"
   xmlns:rdf="http://www.w3.org/1999/02/22-rdf-syntax-ns#"
   xmlns:svg="http://www.w3.org/2000/svg"
   xmlns="http://www.w3.org/2000/svg"
   id="svg4"
   version="1.1"
   fill="none"
   viewBox="0 0 75 65"
   height="65"
   width="75">
  <metadata
     id="metadata10">
    <rdf:RDF>
      <cc:Work
         rdf:about="">
        <dc:format>image/svg+xml</dc:format>
        <dc:type
           rdf:resource="http://purl.org/dc/dcmitype/StillImage" />
      </cc:Work>
    </rdf:RDF>
  </metadata>
  <defs
     id="defs8" />
  <path
     id="path2"
     fill="#2D588D"
     d="M73.2528 13.7147H55.4861V8.29729C55.4861 3.77881 51.8101 0.102783 47.2916 0.102783H27.0509C22.5324 0.102783 18.8564 3.77881 18.8564 8.29729V13.715H1.08958C0.487872 13.715 0 14.2029 0 14.8046V27.9463V63.2765C0 63.8783 0.487872 64.3661 1.08958 64.3661H19.2929V64.366H73.2528C73.8545 64.366 74.3424 63.8781 74.3424 63.2764V27.946V14.8043C74.3424 14.2026 73.8545 13.7147 73.2528 13.7147ZM19.2929 62.187H2.17916V35.1636C4.52283 38.6884 8.52948 41.0165 13.0703 41.0165H14.0847V41.6478C14.0847 44.3192 16.258 46.4926 18.9293 46.4926C21.6007 46.4926 23.774 44.3192 23.774 41.6478V41.0165H45.7535H45.8741H50.5615V41.6478C50.5615 44.3192 52.7349 46.4926 55.4063 46.4926C58.0777 46.4926 60.2509 44.3192 60.2509 41.6478V41.0165H61.2722C65.8131 41.0165 69.8199 38.6884 72.1634 35.1636V62.1868H19.2929V62.187ZM23.7742 38.8374H45.7535H45.8741H50.5615V34.9428C50.5615 34.3411 51.0494 33.8532 51.6511 33.8532H59.1613C59.763 33.8532 60.2509 34.3411 60.2509 34.9428V38.8374H61.2722C67.2775 38.8374 72.1634 33.9517 72.1634 27.9462V15.894H2.17931V27.9462C2.17931 33.9515 7.065 38.8374 13.0706 38.8374H14.085V34.9428C14.085 34.3411 14.5729 33.8532 15.1746 33.8532H22.6846C23.2863 33.8532 23.7742 34.3411 23.7742 34.9428V38.8374ZM16.2641 39.9269V36.0324H21.5952V39.9269V41.648C21.5952 43.1178 20.3994 44.3136 18.9296 44.3136C17.4597 44.3136 16.2641 43.1178 16.2641 41.648V39.9269ZM25.6796 9.22744V13.7147H48.6625V9.22744C48.6625 7.92921 47.6063 6.87302 46.3082 6.87302H28.0341C26.7358 6.87302 25.6796 7.92921 25.6796 9.22744ZM53.3068 13.7148H50.8418V13.7147V9.22744C50.8418 6.72768 48.808 4.69386 46.3083 4.69386H28.0341C25.5343 4.69386 23.5005 6.72768 23.5005 9.22744V13.7148H21.0356V8.29729C21.0356 4.98034 23.734 2.28194 27.0509 2.28194H47.2916C50.6086 2.28194 53.307 4.98034 53.307 8.29729V13.7148H53.3068ZM58.0713 41.648V39.9269V36.0324H52.7403V39.9269V41.648C52.7403 43.1177 53.936 44.3136 55.4058 44.3136C56.8756 44.3136 58.0713 43.1178 58.0713 41.648Z"
     clip-rule="evenodd"
     fill-rule="evenodd" />
</svg>
