<?xml version="1.0" encoding="UTF-8" standalone="no"?>
<svg
   xmlns:dc="http://purl.org/dc/elements/1.1/"
   xmlns:cc="http://creativecommons.org/ns#"
   xmlns:rdf="http://www.w3.org/1999/02/22-rdf-syntax-ns#"
   xmlns:svg="http://www.w3.org/2000/svg"
   xmlns="http://www.w3.org/2000/svg"
   id="svg34"
   version="1.1"
   fill="none"
   viewBox="0 0 85 83"
   height="83"
   width="85">
  <metadata
     id="metadata40">
    <rdf:RDF>
      <cc:Work
         rdf:about="">
        <dc:format>image/svg+xml</dc:format>
        <dc:type
           rdf:resource="http://purl.org/dc/dcmitype/StillImage" />
      </cc:Work>
    </rdf:RDF>
  </metadata>
  <defs
     id="defs38" />
  <path
     id="path2"
     fill="#2D588D"
     d="M48.3845 68.7134H1.34449C0.601613 68.7134 0.000488281 68.1123 0.000488281 67.3694V9.5774C0.000488281 8.83387 0.601613 8.2334 1.34449 8.2334H65.8565C66.6 8.2334 67.2005 8.83387 67.2005 9.5774V45.8654C67.2005 46.6083 66.6 47.2094 65.8565 47.2094C65.1136 47.2094 64.5125 46.6083 64.5125 45.8654V10.9214H2.68849V66.0254H48.3845C49.128 66.0254 49.7285 66.6259 49.7285 67.3694C49.7285 68.1123 49.128 68.7134 48.3845 68.7134Z" />
  <path
     id="path4"
     fill="#2D588D"
     d="M47.0405 63.3372C47.0405 73.7126 55.4812 82.1532 65.8565 82.1532C76.2325 82.1532 84.6725 73.7126 84.6725 63.3372C84.6725 52.9613 76.2325 44.5212 65.8565 44.5212C55.4812 44.5212 47.0405 52.9613 47.0405 63.3372ZM49.7285 63.3372C49.7285 54.4437 56.9637 47.2092 65.8565 47.2092C74.75 47.2092 81.9845 54.4437 81.9845 63.3372C81.9845 72.2301 74.75 79.4652 65.8565 79.4652C56.9637 79.4652 49.7285 72.2301 49.7285 63.3372Z"
     clip-rule="evenodd"
     fill-rule="evenodd" />
  <path
     id="path6"
     fill="#2D588D"
     d="M1.34345 10.9213C1.03961 10.9213 0.735763 10.819 0.483107 10.6109C-0.0852054 10.1352 -0.163299 9.28663 0.311169 8.71569L7.03117 0.651693C7.50695 0.0820678 8.35089 0.00659907 8.92511 0.479755C9.49473 0.955537 9.57151 1.8021 9.09704 2.37304L2.37704 10.437C2.11126 10.7573 1.72933 10.9213 1.34345 10.9213Z" />
  <path
     id="path8"
     fill="#2D588D"
     d="M65.8581 10.9213C65.4722 10.9213 65.0909 10.7572 64.8232 10.4383L58.1032 2.37431C57.6274 1.80337 57.7055 0.955499 58.2751 0.481031C58.848 0.00656173 59.6946 0.0833431 60.169 0.652968L66.889 8.71697C67.3648 9.28791 67.2867 10.1364 66.7171 10.6109C66.4657 10.8189 66.1619 10.9213 65.8581 10.9213Z" />
  <path
     id="path10"
     fill="#2D588D"
     d="M59.1367 2.85743H8.0647C7.32183 2.85743 6.7207 2.25631 6.7207 1.51343C6.7207 0.769902 7.32183 0.169434 8.0647 0.169434H59.1367C59.8802 0.169434 60.4807 0.769902 60.4807 1.51343C60.4807 2.25631 59.8802 2.85743 59.1367 2.85743Z" />
  <path
     id="path12"
     fill="#2D588D"
     d="M28.2262 10.9214C28.1592 10.9214 28.0916 10.9155 28.0247 10.9063C27.291 10.7948 26.7857 10.1096 26.896 9.3753L28.1133 1.3113C28.2249 0.577613 28.908 0.0834564 29.6443 0.18255C30.378 0.294113 30.8833 0.979894 30.7731 1.71358L29.5557 9.77758C29.4534 10.4443 28.8798 10.9214 28.2262 10.9214Z" />
  <path
     id="path14"
     fill="#2D588D"
     d="M38.9754 10.9214C38.3303 10.9214 37.7607 10.4548 37.6517 9.7979L36.3077 1.7339C36.185 1.00219 36.6798 0.309185 37.4122 0.187779C38.1466 0.0604665 38.8369 0.560529 38.9583 1.2929L40.3023 9.3569C40.4244 10.088 39.9296 10.7816 39.1972 10.9024C39.1217 10.9155 39.0496 10.9214 38.9754 10.9214Z" />
  <path
     id="path16"
     fill="#2D588D"
     d="M28.2249 23.0174C27.482 23.0174 26.8809 22.4163 26.8809 21.6734V9.5774C26.8809 8.83387 27.482 8.2334 28.2249 8.2334C28.9684 8.2334 29.5689 8.83387 29.5689 9.5774V21.6734C29.5689 22.4163 28.9684 23.0174 28.2249 23.0174Z" />
  <path
     id="path18"
     fill="#2D588D"
     d="M38.9768 23.0174C38.2339 23.0174 37.6328 22.4163 37.6328 21.6734V9.5774C37.6328 8.83387 38.2339 8.2334 38.9768 8.2334C39.7203 8.2334 40.3208 8.83387 40.3208 9.5774V21.6734C40.3208 22.4163 39.7203 23.0174 38.9768 23.0174Z" />
  <path
     id="path20"
     fill="#2D588D"
     d="M38.9754 23.0174C38.7739 23.0174 38.5685 22.9714 38.3762 22.8763L33.0002 20.1883C32.3361 19.8562 32.067 19.0484 32.3991 18.3843C32.7312 17.7208 33.539 17.453 34.2031 17.7838L39.5791 20.4718C40.2426 20.8038 40.5117 21.611 40.1796 22.2752C39.9433 22.7457 39.4689 23.0174 38.9754 23.0174Z" />
  <path
     id="path22"
     fill="#2D588D"
     d="M28.2259 23.0173C27.733 23.0173 27.2586 22.7457 27.0217 22.2738C26.6896 21.6097 26.9587 20.8025 27.6228 20.4704L32.9988 17.7824C33.6622 17.4517 34.4688 17.7188 34.8022 18.3829C35.1342 19.047 34.8652 19.8549 34.2017 20.1869L28.8257 22.8749C28.6334 22.9714 28.4273 23.0173 28.2259 23.0173Z" />
  <path
     id="path24"
     fill="#2D588D"
     d="M28.16 54.688H9.344C8.60113 54.688 8 54.0869 8 53.344C8 52.6005 8.60113 52 9.344 52H28.16C28.9035 52 29.504 52.6005 29.504 53.344C29.504 54.0869 28.9035 54.688 28.16 54.688Z" />
  <path
     id="path26"
     fill="#2D588D"
     d="M18.752 59.72H9.344C8.60113 59.72 8 59.1189 8 58.376C8 57.6325 8.60113 57.032 9.344 57.032H18.752C19.4955 57.032 20.096 57.6325 20.096 58.376C20.096 59.1189 19.4955 59.72 18.752 59.72Z" />
  <path
     id="path28"
     fill="#2D588D"
     d="M48.3845 68.7134C47.6417 68.7134 47.0405 68.1123 47.0405 67.3694V63.3374C47.0405 62.5939 47.6417 61.9934 48.3845 61.9934C49.1281 61.9934 49.7285 62.5939 49.7285 63.3374V67.3694C49.7285 68.1123 49.1281 68.7134 48.3845 68.7134Z" />
  <path
     id="path30"
     fill="#2D588D"
     d="M65.8567 64.6799C65.1138 64.6799 64.5127 64.0788 64.5127 63.3359V53.9292C64.5127 53.1857 65.1138 52.5852 65.8567 52.5852C66.6002 52.5852 67.2007 53.1857 67.2007 53.9292V63.3359C67.2007 64.0788 66.6002 64.6799 65.8567 64.6799Z" />
  <path
     id="path32"
     fill="#2D588D"
     d="M72.5084 71.3325C72.1639 71.3325 71.82 71.2013 71.5582 70.9388L64.9064 64.2877C64.3808 63.762 64.3808 62.9128 64.9064 62.3872C65.4321 61.8615 66.2813 61.8615 66.8069 62.3872L73.4587 69.0383C73.9837 69.5639 73.9837 70.4131 73.4587 70.9388C73.1962 71.2026 72.8523 71.3325 72.5084 71.3325Z" />
</svg>
