<?xml version="1.0" encoding="UTF-8"?>
<svg width="100px" height="80px" viewBox="0 0 100 80" version="1.1" xmlns="http://www.w3.org/2000/svg" xmlns:xlink="http://www.w3.org/1999/xlink">
    <!-- Generator: Sketch 59 (86127) - https://sketch.com -->
    <title>Artboard Copy 4</title>
    <desc>Created with Sketch.</desc>
    <g id="Artboard-Copy-4" stroke="none" stroke-width="1" fill="none" fill-rule="evenodd">
        <g id="clipboard" transform="translate(17.000000, 2.000000)" fill="#2D588D" fill-rule="nonzero" stroke="transparent" stroke-width="1.045">
            <path d="M75.4392685,20.5134805 C73.3008065,18.3750188 69.8215445,18.3750188 67.6830825,20.5134805 L60.79392,27.402643 L60.79392,5.11632 C60.79392,2.29540777 58.4985122,0 55.6776,0 L5.11632,0 C2.29540777,0 0,2.29540777 0,5.11632 L0,71.92944 C0,74.7503522 2.29540777,77.04576 5.11632,77.04576 L55.6776,77.04576 C58.4985122,77.04576 60.79392,74.7503522 60.79392,71.92944 L60.79392,42.9156028 L75.4392685,28.2696665 C77.5777303,26.1312047 77.5777303,22.6519425 75.4392685,20.5134805 Z M57.78432,5.11632 L57.78432,30.412243 L54.77472,33.421843 L54.77472,7.524 C54.77472,6.69283305 54.101087,6.0192 53.26992,6.0192 L43.213036,6.0192 L43.213036,3.0096 L55.6776,3.0096 C56.8391175,3.0096 57.78432,3.9548025 57.78432,5.11632 Z M49.567877,46.3848722 L51.599357,41.821096 L54.131653,44.3533922 L49.567877,46.3848722 Z M40.203436,3.0096 L40.203436,9.14166 C40.203436,10.0751063 39.4439822,10.83456 38.510536,10.83456 L22.283384,10.83456 C21.3499378,10.83456 20.590484,10.0751063 20.590484,9.14166 L20.590484,3.0096 L40.203436,3.0096 Z M51.76512,68.01696 L9.0288,68.01696 L9.0288,9.0288 L17.580884,9.0288 L17.580884,9.14166 C17.580884,11.734501 19.690543,13.84416 22.283384,13.84416 L38.510536,13.84416 C41.103377,13.84416 43.213036,11.734501 43.213036,9.14166 L43.213036,9.0288 L51.76512,9.0288 L51.76512,36.431443 L50.0510588,38.1449165 C49.9211522,38.275411 49.8159338,38.42883 49.7406938,38.5969445 L45.2239425,48.7420003 C44.9705953,49.3115905 45.094036,49.9775822 45.5343075,50.4184415 C45.8229235,50.7064697 46.2079405,50.859301 46.598836,50.859301 C46.805746,50.859301 47.0138315,50.8169785 47.2107488,50.7293945 L51.76512,48.7014413 L51.76512,68.01696 M53.26992,71.02656 C54.100499,71.02656 54.77472,70.352927 54.77472,69.52176 L54.77472,47.3612288 L57.3558047,46.2120553 C57.514514,46.1415178 57.658528,46.043353 57.78432,45.9228515 L57.78432,71.92944 C57.78432,73.0909575 56.8391175,74.03616 55.6776,74.03616 L5.11632,74.03616 C3.9548025,74.03616 3.0096,73.0909575 3.0096,71.92944 L3.0096,5.11632 C3.0096,3.9548025 3.9548025,3.0096 5.11632,3.0096 L17.580884,3.0096 L17.580884,6.0192 L7.524,6.0192 C6.69283305,6.0192 6.0192,6.69283305 6.0192,7.524 L6.0192,69.52176 C6.0192,70.352927 6.69283305,71.02656 7.524,71.02656 L53.26992,71.02656 M67.7024803,31.7501045 L56.743892,42.7092805 L53.2434685,39.2088572 L66.8119445,25.6403812 L70.3123678,29.1408047 L67.7024803,31.7501045 Z M73.3113872,26.1417853 L72.440249,27.0123355 L68.9404135,23.5125 L69.8109638,22.6419497 C70.776152,21.6767615 72.346199,21.6767615 73.3113872,22.6419497 C74.2759875,23.60655 74.2759875,25.1765972 73.3113872,26.1417853 L73.3113872,26.1417853 Z" id="Shape"></path>
            <path d="M24.37776,18.0576 L14.74704,18.0576 C13.915873,18.0576 13.24224,18.731233 13.24224,19.5624 L13.24224,29.19312 C13.24224,30.024287 13.915873,30.69792 14.74704,30.69792 L24.37776,30.69792 C25.208927,30.69792 25.88256,30.024287 25.88256,29.19312 L25.88256,19.5624 C25.88256,18.731233 25.208927,18.0576 24.37776,18.0576 Z M22.87296,27.68832 L16.25184,27.68832 L16.25184,21.0672 L22.87296,21.0672 L22.87296,27.68832 Z" id="Shape"></path>
            <path d="M24.37776,34.6104 L14.74704,34.6104 C13.915873,34.6104 13.24224,35.284033 13.24224,36.1152 L13.24224,45.74592 C13.24224,46.577087 13.915873,47.25072 14.74704,47.25072 L24.37776,47.25072 C25.208927,47.25072 25.88256,46.577087 25.88256,45.74592 L25.88256,36.1152 C25.88256,35.284033 25.208927,34.6104 24.37776,34.6104 Z M22.87296,44.24112 L16.25184,44.24112 L16.25184,37.62 L22.87296,37.62 L22.87296,44.24112 Z" id="Shape"></path>
            <path d="M24.37776,51.1632 L14.74704,51.1632 C13.915873,51.1632 13.24224,51.836833 13.24224,52.668 L13.24224,62.29872 C13.24224,63.129887 13.915873,63.80352 14.74704,63.80352 L24.37776,63.80352 C25.208927,63.80352 25.88256,63.129887 25.88256,62.29872 L25.88256,52.668 C25.88256,51.836833 25.208927,51.1632 24.37776,51.1632 Z M22.87296,60.79392 L16.25184,60.79392 L16.25184,54.1728 L22.87296,54.1728 L22.87296,60.79392 Z" id="Shape"></path>
            <path d="M35.1488362,28.838669 C35.4427425,29.1325753 35.8277597,29.2795285 36.212777,29.2795285 C36.597794,29.2795285 36.9828112,29.1325753 37.2767175,28.838669 L44.0706545,22.0447322 C44.657879,21.4575075 44.657879,20.5046635 44.0706545,19.916851 C43.482842,19.3290385 42.5299978,19.3290385 41.9421853,19.916851 L36.212777,25.6462595 L33.9291253,23.3626078 C33.3413128,22.7747953 32.3890565,22.7747953 31.8006562,23.3626078 C31.2134315,23.9504203 31.2134315,24.9032645 31.8006562,25.490489 L35.1488362,28.838669 Z" id="Path"></path>
            <path d="M35.1488362,45.391469 C35.4309862,45.673619 35.8136522,45.8323285 36.212777,45.8323285 C36.6119015,45.8323285 36.9945675,45.673619 37.2767175,45.391469 L44.0706545,38.59812 C44.657879,38.0103075 44.657879,37.0574635 44.0706545,36.469651 C43.482842,35.8824263 42.5299978,35.8824263 41.9421853,36.469651 L36.212777,42.1996472 L33.9291253,39.9159955 C33.3413128,39.328183 32.3890565,39.328183 31.8006562,39.9159955 C31.2134315,40.5032203 31.2134315,41.4560645 31.8006562,42.043877 L35.1488362,45.391469 Z" id="Path"></path>
            <path d="M37.9356553,59.611829 L40.268683,61.944269 C40.5625895,62.2381753 40.9476065,62.3851285 41.3326237,62.3851285 C41.717641,62.3851285 42.102658,62.2381753 42.3965645,61.944269 C42.984377,61.3564565 42.984377,60.4036125 42.3965645,59.8163878 L40.0641245,57.48336 L42.3965645,55.1503322 C42.984377,54.5631075 42.984377,53.6102635 42.3965645,53.022451 C41.808752,52.4346385 40.8564955,52.4346385 40.268683,53.022451 L37.9356553,55.354891 L35.6032153,53.022451 C35.0154028,52.4352262 34.0631465,52.4346385 33.4747463,53.022451 C32.8875215,53.6102635 32.8875215,54.5631075 33.4747463,55.1503322 L35.807774,57.48336 L33.4747463,59.8163878 C32.8875215,60.4036125 32.8875215,61.3564565 33.4747463,61.944269 C33.7686525,62.2381753 34.1542575,62.3851285 34.5392747,62.3851285 C34.924292,62.3851285 35.309309,62.2381753 35.6032153,61.944269 L37.9356553,59.611829 Z" id="Path"></path>
        </g>
    </g>
</svg>