<?xml version="1.0" encoding="UTF-8" standalone="no"?>
<svg
   xmlns:dc="http://purl.org/dc/elements/1.1/"
   xmlns:cc="http://creativecommons.org/ns#"
   xmlns:rdf="http://www.w3.org/1999/02/22-rdf-syntax-ns#"
   xmlns:svg="http://www.w3.org/2000/svg"
   xmlns="http://www.w3.org/2000/svg"
   id="svg10"
   version="1.1"
   fill="none"
   viewBox="0 0 100 100"
   height="100"
   width="100">
  <metadata
     id="metadata16">
    <rdf:RDF>
      <cc:Work
         rdf:about="">
        <dc:format>image/svg+xml</dc:format>
        <dc:type
           rdf:resource="http://purl.org/dc/dcmitype/StillImage" />
      </cc:Work>
    </rdf:RDF>
  </metadata>
  <defs
     id="defs14" />
  <path
     id="path2"
     fill="#2D588D"
     d="M25.225 20.0225L24.715 19.9542L24.26 20.1808L0.926667 31.8475L0 32.3108V69.4392L1.01 69.8725L12.375 74.7425L24.75 80.0458L100 71.4958V30.2192L25.225 20.0225ZM10 70.0992L3.33333 67.2425V34.3708L10 31.0375V70.0992ZM23.3333 75.8125L13.3333 71.5275V29.3708L23.3333 24.3708V75.8125ZM96.6667 68.5192L26.6667 76.4742V23.5825L96.6667 33.1292V68.5192Z" />
  <path
     id="path4"
     fill="#2D588D"
     d="M6.66667 43.3408C5.74625 43.3408 5 44.0871 5 45.0075V56.6742C5 57.5946 5.74625 58.3408 6.66667 58.3408C7.58708 58.3408 8.33333 57.5946 8.33333 56.6742V45.0075C8.33333 44.0871 7.58708 43.3408 6.66667 43.3408Z" />
  <path
     id="path6"
     fill="#2D588D"
     d="M18.3333 43.3408C17.4129 43.3408 16.6667 44.0871 16.6667 45.0075V58.3408C16.6667 59.2612 17.4129 60.0075 18.3333 60.0075C19.2538 60.0075 20 59.2612 20 58.3408V45.0075C20 44.0871 19.2538 43.3408 18.3333 43.3408Z" />
  <path
     id="path8"
     fill="#2D588D"
     d="M91.85 35.0175L31.85 28.3508C30.9352 28.2496 30.1115 28.9092 30.0102 29.824C30.0035 29.8848 30 29.946 30 30.0075V70.0075C30 70.4738 30.1952 70.9185 30.5383 71.2342C30.846 71.5171 31.2488 71.6742 31.6667 71.6742C31.7127 71.6767 31.759 71.6767 31.805 71.6742L91.805 66.6742C92.6711 66.6021 93.3363 65.8765 93.3333 65.0075V36.6742C93.3333 35.8246 92.6944 35.111 91.85 35.0175ZM40 67.6408L33.3333 68.1958V31.8692L40 32.6108V67.6408ZM50 66.8075L43.3333 67.3625V32.9808L50 33.7208V66.8075ZM60 65.9742L53.3333 66.5292V34.0925L60 34.8325V65.9742ZM70 65.1408L63.3333 65.6958V35.1958L70 35.9375V65.1408ZM80 64.3075L73.3333 64.8625V36.3075L80 37.0492V64.3075ZM90 63.4742L83.3333 64.0292V37.4258L90 38.1675V63.4742Z" />
</svg>
