<?xml version="1.0" encoding="UTF-8" standalone="no"?>
<svg
   xmlns:dc="http://purl.org/dc/elements/1.1/"
   xmlns:cc="http://creativecommons.org/ns#"
   xmlns:rdf="http://www.w3.org/1999/02/22-rdf-syntax-ns#"
   xmlns:svg="http://www.w3.org/2000/svg"
   xmlns="http://www.w3.org/2000/svg"
   style="fill:none"
   id="svg16"
   version="1.1"
   viewBox="0 0 81.165001 81.165001"
   height="81.165001"
   width="81.165001">
  <metadata
     id="metadata22">
    <rdf:RDF>
      <cc:Work
         rdf:about="">
        <dc:format>image/svg+xml</dc:format>
        <dc:type
           rdf:resource="http://purl.org/dc/dcmitype/StillImage" />
      </cc:Work>
    </rdf:RDF>
  </metadata>
  <defs
     id="defs20" />
  <rect
     style="fill:#2b578f"
     id="rect2"
     height="10.752"
     width="2.688"
     y="36.550602"
     x="6.9822297" />
  <rect
     style="fill:#2b578f"
     id="rect4"
     height="10.752"
     width="2.688"
     y="36.550602"
     x="13.7029" />
  <rect
     style="fill:#2b578f"
     id="rect6"
     height="10.752"
     width="2.688"
     y="36.550602"
     x="20.422701" />
  <rect
     style="fill:#2b578f"
     id="rect8"
     height="10.752"
     width="2.688"
     y="36.550602"
     x="27.142401" />
  <rect
     style="fill:#2b578f"
     id="rect10"
     height="10.752"
     width="2.688"
     y="36.550602"
     x="33.862103" />
  <path
     style="clip-rule:evenodd;fill:#2b578f;fill-rule:evenodd"
     id="path12"
     d="m 79.5592,35.2065 h -7e-4 -5.376 V 12.6601 C 77.1435,10.4404 77.7444,6.24078 75.5248,3.27978 73.3052,0.31878014 69.1055,-0.28215596 66.1445,1.93746 64.5852,3.1064 63.6119,4.89628 63.4787,6.84054 L 27.1425,3.08171 V 1.6065 c 2e-4,-0.74205596 -0.6013,-1.34383192 -1.3433,-1.34399996 h -7e-4 -8.064 c -0.7421,-1.6796e-4 -1.3438,0.601272 -1.344,1.34332996 v 6.7e-4 6.72 c -2e-4,0.74206 0.6013,1.34383 1.3433,1.344 h 7e-4 2.688 v 4.032 c -2e-4,0.7421 0.6013,1.3438 1.3433,1.344 h 7e-4 0.672 c 1.8557,0 3.36,1.5043 3.36,3.36 0,1.8557 -1.5043,3.36 -3.36,3.36 -1.8557,0 -3.36,-1.5043 -3.36,-3.36 h -2.688 c 0.0064,1.8492 0.8628,3.5927 2.3226,4.728 l -16.08029,8.04 H 1.6065 c -0.74205996,-2e-4 -1.34382996,0.6013 -1.34399996,1.3433 v 7e-4 18.816 c -1.68e-4,0.7421 0.60127,1.3438 1.34332996,1.344 h 6.7e-4 40.32 c 0.7421,2e-4 1.3438,-0.6013 1.344,-1.3433 v -7e-4 -18.816 c 2e-4,-0.7421 -0.6013,-1.3438 -1.3433,-1.344 h -7e-4 -2.3481 L 25.4991,23.5933 c 2.8748,-1.6795 3.8437,-5.3713 2.1642,-8.2461 -0.964,-1.6499 -2.6531,-2.7453 -4.5528,-2.9521 V 9.6705 h 2.688 c 0.7421,1.7e-4 1.3438,-0.60127 1.344,-1.34333 V 8.3265 5.78533 L 63.851,9.5828 c 0.4417,1.2239 1.2294,2.293 2.2675,3.0774 v 22.5463 h -12.096 c -0.7421,-2e-4 -1.3438,0.6013 -1.344,1.3433 v 7e-4 18.816 h -2.688 c -0.7421,-2e-4 -1.3438,0.6013 -1.344,1.3433 v 7e-4 22.848 c -2e-4,0.7421 0.6013,1.3438 1.3433,1.344 h 7e-4 29.568 c 0.7421,2e-4 1.3438,-0.6013 1.344,-1.3433 v -7e-4 -43.008 c 2e-4,-0.7421 -0.6013,-1.3438 -1.3433,-1.344 z m -38.9767,-1.344 v 16.128 H 2.9505 V 33.8625 Z M 8.64436,31.1745 H 33.9067 L 21.7437,24.6252 Z M 24.4545,6.9825 h -5.376 v -4.032 h 5.376 z m 49.728,0.336 c 0,-2.22684 -1.8052,-4.032 -4.032,-4.032 -2.2258,0.00235 -4.0296,1.80617 -4.032,4.032 0,2.22684 1.8052,4.032 4.032,4.032 2.2268,0 4.032,-1.80516 4.032,-4.032 z m -1.344,36.1338 4.4769,3.7308 -4.4769,2.9843 z m 0,18.8111 4.4769,-2.9843 -4.4769,-3.7307 z m 4.4769,9.1116 -4.4769,2.9844 v -6.715 z m -25.9809,6.8395 h 18.816 v -20.16 h -18.816 z m 18.816,-22.848 h -14.784 v -17.472 h 14.784 z m -1.344,-41.4639 v 21.3039 h 2.688 V 13.9026 c -0.8869,0.1811 -1.8011,0.1811 -2.688,0 z m 9.408,64.3119 h -5.376 v -0.6248 l 5.376,-3.5839 z m -4.4769,-13.3207 4.4769,3.7308 v -6.715 z m 4.4769,-8.3652 -4.4769,-3.7308 4.4769,-2.9842 z m -5.376,-16.5761 5.376,4.4801 v -6.5381 h -5.376 z" />
  <path
     style="fill:#ffffff"
     id="path14"
     d="m 79.5592,35.2065 v -0.2625 0 z m -5.3767,0 H 73.92 v 0.2625 h 0.2625 z m 0,-22.5464 L 74.0251,12.45 73.92,12.5288 v 0.1313 z M 66.1445,1.93746 65.9871,1.72742 v 0 z m -2.6658,4.90308 -0.027,0.26111 0.2703,0.02796 0.0186,-0.27113 z M 27.1425,3.08171 H 26.88 v 0.23674 l 0.2355,0.02436 z m 0,-1.47521 -0.2625,-6e-5 v 6e-5 z M 25.7992,0.26250004 V 4.2137148e-8 v 0 z m -8.0647,0 -10e-5,0.2625 h 10e-5 z M 16.3905,1.60583 16.128,1.60577 v 6e-5 z m 0,6.72067 0.2625,6e-5 v -6e-5 z m 1.3433,1.344 v 0.2625 0 z m 2.6887,0 H 20.685 V 9.408 h -0.2625 z m 0,4.032 0.2625,10e-5 v -10e-5 z m 1.3433,1.344 v 0.2625 0 z m -2.6873,3.36 H 19.341 V 18.144 h -0.2625 z m -2.688,0 V 18.144 h -0.2634 l 9e-4,0.2634 z m 2.3226,4.728 0.1174,0.2348 0.3725,-0.1863 -0.3287,-0.2557 z m -16.08029,8.04 V 31.437 H 2.69478 L 2.7502,31.4093 Z m -1.02631,0 -6e-5,0.2625 h 6e-5 z M 0.26250004,32.5178 H 4.2137261e-8 v 0 z m 0,18.8167 0.2625,1e-4 v -1e-4 z m 1.34332996,1.344 -6e-5,0.2625 h 6e-5 z m 40.32067,0 1e-4,-0.2625 h -1e-4 z m 1.344,-1.3433 h 0.2625 v 0 z m 0,-18.8167 -0.2625,-1e-4 v 1e-4 z m -1.3433,-1.344 v -0.2625 0 z m -2.3488,0 -0.1245,0.2311 0.0583,0.0314 h 0.0662 z m -14.0793,-7.5812 -0.1324,-0.2266 -0.4039,0.236 0.4119,0.2218 z m 2.1642,-8.2461 0.2267,-0.1324 v 0 z M 23.1105,12.3951 H 22.848 v 0.2355 l 0.2341,0.0255 z m 0,-2.7246 V 9.408 H 22.848 v 0.2625 z m 2.688,0 10e-5,-0.2625 h -10e-5 z m 1.344,-1.34333 0.2625,6e-5 v -6e-5 z m 0,-2.54184 0.027,-0.2611 L 26.88,5.49428 V 5.78533 Z M 63.851,9.5828 64.0979,9.4937 64.042,9.33866 63.878,9.3217 Z m 2.2675,3.0774 h 0.2625 v -0.1306 l -0.1042,-0.0788 z m 0,22.5463 v 0.2625 h 0.2625 v -0.2625 z m -12.096,0 -1e-4,0.2625 h 1e-4 z m -1.344,1.3433 H 52.416 v 0 z m 0,18.8167 v 0.2625 h 0.2625 v -0.2625 z m -2.688,0 -10e-5,0.2625 h 10e-5 z m -1.344,1.3433 H 48.384 v 0 z m 0,22.8487 0.2625,1e-4 v -1e-4 z m 1.3433,1.344 v 0.2625 0 z m 29.5687,0 1e-4,-0.2625 h -1e-4 z m 1.344,-1.3433 h 0.2625 v 0 z m 0,-43.0087 -0.2625,-10e-5 v 10e-5 z m -40.32,13.44 v 0.2625 h 0.2625 v -0.2625 z m 0,-16.128 H 40.845 V 33.6 H 40.5825 Z M 2.9505,49.9905 H 2.688 v 0.2625 h 0.2625 z m 0,-16.128 V 33.6 H 2.688 v 0.2625 z m 30.9562,-2.688 v 0.2625 l 0.1244,-0.4936 z m -25.26234,0 -0.11739,-0.2348 0.11739,0.4973 z m 13.09934,-6.5493 0.1244,-0.2311 -0.12,-0.0646 -0.1218,0.0609 z M 19.0785,6.9825 H 18.816 V 7.245 h 0.2625 z m 5.376,0 V 7.245 H 24.717 V 6.9825 Z m -5.376,-4.032 V 2.688 H 18.816 v 0.2625 z m 5.376,0 H 24.717 V 2.688 h -0.2625 z m 45.696,0.336 V 3.024 h -3e-4 z m -4.032,4.032 -0.2625,-2.8e-4 v 2.8e-4 z m 11.1969,39.8646 0.1456,0.2184 0.2925,-0.195 -0.2701,-0.2251 z m -4.4769,-3.7308 0.168,-0.2017 -0.4305,-0.3588 v 0.5605 z m 0,6.7151 H 72.576 v 0.4905 l 0.4081,-0.2721 z m 4.4769,9.1117 0.1456,0.2184 0.2925,-0.195 -0.2701,-0.2251 z m -4.4769,2.9843 H 72.576 v 0.4905 l 0.4081,-0.2721 z m 0,-6.715 0.168,-0.2016 -0.4305,-0.3588 v 0.5604 z m 0,18.811 H 72.576 v 0.4905 l 0.4081,-0.2721 z m 4.4769,-2.9844 0.1456,0.2185 0.2925,-0.195 -0.2701,-0.2251 z m -4.4769,-3.7306 0.168,-0.2016 -0.4305,-0.3588 v 0.5604 z m -2.688,10.5701 v 0.2625 h 0.2625 v -0.2625 z m -18.816,0 H 51.072 v 0.2625 h 0.2625 z m 18.816,-20.16 H 70.413 V 57.792 h -0.2625 z m -18.816,0 V 57.792 H 51.072 v 0.2625 z m 4.032,-2.688 H 55.104 v 0.2625 h 0.2625 z m 14.784,0 V 55.629 H 70.413 V 55.3665 Z M 55.3665,37.8945 V 37.632 H 55.104 v 0.2625 z m 14.784,0 H 70.413 V 37.632 h -0.2625 z m -1.344,-2.688 H 68.544 v 0.2625 h 0.2625 z m 0,-21.3039 0.0525,-0.2572 -0.315,-0.0643 v 0.3215 z m 2.688,21.3039 v 0.2625 h 0.2625 v -0.2625 z m 0,-21.3039 h 0.2625 v -0.3215 l -0.315,0.0643 z m 1.344,64.3119 H 72.576 v 0.2625 h 0.2625 z m 5.376,0 v 0.2625 h 0.2625 v -0.2625 z m -5.376,-0.6248 -0.1456,-0.2184 -0.1169,0.0779 v 0.1405 z m 5.376,-3.5839 h 0.2625 v -0.4905 l -0.4081,0.272 z m 0,-5.3812 -0.1681,0.2016 0.4306,0.3588 v -0.5604 z m -4.4769,-3.7308 -0.1456,-0.2184 -0.2925,0.195 0.2701,0.225 z m 4.4769,-2.9842 h 0.2625 v -0.4905 l -0.4081,0.2721 z m -4.4769,-9.1118 -0.1456,-0.2184 -0.2925,0.195 0.2701,0.225 z m 4.4769,3.7308 -0.1681,0.2016 0.4306,0.3588 v -0.5604 z m 0,-6.715 h 0.2625 v -0.4905 l -0.4081,0.2721 z m 0,-5.381 -0.1681,0.2016 0.4306,0.3588 v -0.5604 z m -5.376,-4.4801 H 72.576 v 0.1229 l 0.0944,0.0788 z m 5.376,-2.058 H 78.477 V 37.632 h -0.2625 z m -5.376,0 V 37.632 H 72.576 v 0.2625 z m 6.72,-2.4255 h 7e-4 v -0.525 h -7e-4 z m -5.376,0 h 5.376 v -0.525 h -5.376 z M 73.92,12.6601 v 22.5464 h 0.525 V 12.6601 Z m 1.3948,-9.22287 c 2.1326,2.845 1.5552,6.88017 -1.2897,9.01277 l 0.3148,0.4201 c 3.077,-2.3066 3.7015,-6.67077 1.395,-9.74777 z M 66.302,2.1475 c 2.845,-2.13266396 6.8801,-1.55526596 9.0128,1.28973 l 0.4201,-0.3149 C 73.4283,0.04532704 69.0641,-0.57914796 65.9871,1.72742 Z M 63.7406,6.85848 C 63.8686,4.9904 64.8037,3.27065 66.302,2.1475 L 65.9871,1.72742 C 64.3666,2.94216 63.3553,4.80215 63.2168,6.8226 Z M 27.1155,3.34281 63.4517,7.10165 63.5057,6.57943 27.1695,2.8206 Z M 26.88,1.6065 v 1.47521 h 0.525 V 1.6065 Z M 25.7991,0.52500004 c 0.5971,1.35e-4 1.081,0.48434296 1.0809,1.08143996 l 0.525,1.2e-4 C 27.4052,0.71954504 26.6863,2.0104214e-4 25.7992,4.2137148e-8 Z m -6e-4,0 h 7e-4 V 4.2137148e-8 h -7e-4 z m -8.064,0 h 8.064 V 4.2137148e-8 h -8.064 z M 16.653,1.60589 c 10e-5,-0.597068 0.4843,-1.08102496 1.0814,-1.08088996 L 17.7346,4.2137148e-8 C 16.8475,-2.0095786e-4 16.1282,0.71872204 16.128,1.60577 Z m 0,6.1e-4 v -6.7e-4 h -0.525 v 6.7e-4 z m 0,6.72 v -6.72 h -0.525 v 6.72 z M 17.7339,9.408 C 17.1368,9.40786 16.6529,8.92366 16.653,8.32656 l -0.525,-1.2e-4 c -2e-4,0.88702 0.7187,1.60636 1.6058,1.60656 z m 6e-4,0 h -7e-4 v 0.525 h 7e-4 z m 2.688,0 h -2.688 v 0.525 h 2.688 z m 0.2625,4.2945 V 9.6705 H 20.16 v 4.032 z m 1.0809,1.0815 c -0.5971,-1e-4 -1.081,-0.4843 -1.0809,-1.0814 l -0.525,-2e-4 c -2e-4,0.8871 0.7187,1.6064 1.6058,1.6066 z m 6e-4,0 h -7e-4 v 0.525 h 7e-4 z m 0.672,0 h -0.672 v 0.525 h 0.672 z m 3.6225,3.6225 c 0,-2.0007 -1.6218,-3.6225 -3.6225,-3.6225 v 0.525 c 1.7108,0 3.0975,1.3867 3.0975,3.0975 z m -3.6225,3.6225 c 2.0007,0 3.6225,-1.6218 3.6225,-3.6225 h -0.525 c 0,1.7108 -1.3867,3.0975 -3.0975,3.0975 z M 18.816,18.4065 c 0,2.0007 1.6218,3.6225 3.6225,3.6225 v -0.525 c -1.7108,0 -3.0975,-1.3867 -3.0975,-3.0975 z m -2.4255,0.2625 h 2.688 v -0.525 h -2.688 z m 2.4838,4.2583 C 17.4782,21.8415 16.6591,20.1741 16.653,18.4056 l -0.525,0.0018 c 0.0067,1.9299 0.9005,3.7495 2.4239,4.9343 z m -16.1241,8.482 16.0803,-8.04 -0.2348,-0.4696 -16.08028,8.04 z M 1.6065,31.437 H 2.63281 V 30.912 H 1.6065 Z M 0.52500004,32.5179 C 0.52514004,31.9208 1.00934,31.4369 1.60644,31.437 l 1.2e-4,-0.525 C 0.71954004,30.9118 2.0104214e-4,31.6307 4.2137261e-8,32.5178 Z m 0,6e-4 v -7e-4 H 4.2137261e-8 v 7e-4 z m 0,18.816 V 32.5185 H 4.2137261e-8 v 18.816 z M 1.60589,52.416 C 1.00882,52.4159 0.52486004,51.9317 0.52500004,51.3346 L 4.2137261e-8,51.3344 C -2.0095786e-4,52.2215 0.71872004,52.9408 1.60577,52.941 Z m 6.1e-4,0 h -6.7e-4 v 0.525 h 6.7e-4 z m 40.32,0 h -40.32 v 0.525 h 40.32 z m 1.0815,-1.0809 c -1e-4,0.5971 -0.4843,1.081 -1.0814,1.0809 l -2e-4,0.525 c 0.8871,2e-4 1.6064,-0.7187 1.6066,-1.6058 z m 0,-6e-4 v 7e-4 h 0.525 v -7e-4 z m 0,-18.816 v 18.816 h 0.525 V 32.5185 Z M 41.9271,31.437 c 0.5971,10e-5 1.081,0.4843 1.0809,1.0814 l 0.525,2e-4 c 2e-4,-0.8871 -0.7187,-1.6064 -1.6058,-1.6066 z m -6e-4,0 h 7e-4 v -0.525 h -7e-4 z m -2.3481,0 h 2.3481 v -0.525 h -2.3481 z m -14.2037,-7.6125 14.0792,7.5811 0.2489,-0.4622 -14.0792,-7.5812 z m 2.0619,-8.3449 c 1.6064,2.7497 0.6797,6.2807 -2.0699,7.8871 l 0.2648,0.4533 c 3,-1.7526 4.0111,-5.6052 2.2585,-8.6052 z m -4.3545,-2.8235 c 1.817,0.1978 3.4325,1.2454 4.3546,2.8235 L 27.89,15.2148 C 26.884,13.493 25.1214,12.35 23.1389,12.1342 Z M 22.848,9.6705 v 2.7246 h 0.525 V 9.6705 Z M 25.7985,9.408 h -2.688 v 0.525 h 2.688 z M 26.88,8.32711 C 26.8799,8.92418 26.3957,9.40813 25.7986,9.408 l -2e-4,0.525 c 0.8871,2e-4 1.6064,-0.71872 1.6066,-1.60577 z m 0,-6.1e-4 v 6.7e-4 h 0.525 V 8.3265 Z m 0,-2.54117 V 8.3265 h 0.525 V 5.78533 Z M 63.878,9.3217 27.1695,5.52423 27.1155,6.04644 63.824,9.84391 Z m 2.3988,3.1291 C 65.2793,11.6971 64.5223,10.6697 64.0979,9.4937 l -0.4938,0.17821 c 0.4589,1.27169 1.2775,2.38269 2.3561,3.19779 z M 66.381,35.2065 V 12.6602 H 65.856 V 35.2065 Z M 54.0225,35.469 h 12.096 v -0.525 h -12.096 z m -1.0815,1.0809 c 10e-5,-0.5971 0.4843,-1.081 1.0814,-1.0809 l 2e-4,-0.525 c -0.8871,-2e-4 -1.6064,0.7187 -1.6066,1.6058 z m 0,6e-4 v -7e-4 h -0.525 v 7e-4 z m 0,18.816 v -18.816 h -0.525 v 18.816 z m -2.9505,0.2625 h 2.688 v -0.525 h -2.688 z m -1.0815,1.0809 c 1e-4,-0.5971 0.4843,-1.081 1.0814,-1.0809 l 2e-4,-0.525 c -0.8871,-2e-4 -1.6064,0.7187 -1.6066,1.6058 z m 0,6e-4 v -7e-4 h -0.525 v 7e-4 z m 0,22.848 v -22.848 h -0.525 v 22.848 z m 1.0809,1.0815 c -0.5971,-1e-4 -1.081,-0.4843 -1.0809,-1.0814 l -0.525,-2e-4 c -2e-4,0.8871 0.7187,1.6064 1.6058,1.6066 z m 6e-4,0 h -7e-4 v 0.525 h 7e-4 z m 29.568,0 h -29.568 v 0.525 h 29.568 z M 80.64,79.5591 c -1e-4,0.5971 -0.4843,1.081 -1.0814,1.0809 l -2e-4,0.525 c 0.8871,2e-4 1.6064,-0.7187 1.6066,-1.6058 z m 0,-6e-4 v 7e-4 h 0.525 v -7e-4 z m 0,-43.008 v 43.008 h 0.525 V 36.5505 Z M 79.5591,35.469 c 0.5971,10e-5 1.081,0.4843 1.0809,1.0814 l 0.525,2e-4 c 2e-4,-0.8871 -0.7187,-1.6064 -1.6058,-1.6066 z M 40.845,49.9905 V 33.8625 H 40.32 v 16.128 z M 2.9505,50.253 h 37.632 V 49.728 H 2.9505 Z M 2.688,33.8625 v 16.128 H 3.213 V 33.8625 Z M 40.5825,33.6 H 2.9505 v 0.525 h 37.632 z M 33.9067,30.912 H 8.64436 v 0.525 H 33.9067 Z m -12.2875,-6.0557 12.163,6.5493 0.2489,-0.4622 -12.163,-6.5493 z M 8.76174,31.4093 21.861,24.86 21.6263,24.3904 8.52697,30.9397 Z M 19.0785,7.245 h 5.376 V 6.72 h -5.376 z M 18.816,2.9505 v 4.032 h 0.525 V 2.9505 Z M 24.4545,2.688 h -5.376 v 0.525 h 5.376 z m 0.2625,4.2945 v -4.032 h -0.525 v 4.032 z M 70.1505,3.549 c 2.0819,0 3.7695,1.68763 3.7695,3.7695 h 0.525 C 74.445,4.94668 72.5223,3.024 70.1505,3.024 Z M 66.381,7.31878 C 66.3832,5.2377 68.0697,3.5512 70.1508,3.549 l -6e-4,-0.525 C 67.7796,3.0265 65.8585,4.94763 65.856,7.31822 Z m 3.7695,3.76922 c -2.0819,0 -3.7695,-1.68763 -3.7695,-3.7695 h -0.525 c 0,2.37181 1.9227,4.2945 4.2945,4.2945 z M 73.92,7.3185 c 0,2.08187 -1.6876,3.7695 -3.7695,3.7695 v 0.525 c 2.3718,0 4.2945,-1.92269 4.2945,-4.2945 z m 3.5634,39.6629 -4.4769,-3.7308 -0.3361,0.4033 4.4769,3.7308 z m -4.4993,3.4044 4.4769,-2.9843 -0.2912,-0.4369 -4.4769,2.9844 z M 72.576,43.4523 v 6.7151 h 0.525 v -6.7151 z m 4.5938,15.6083 -4.4769,2.9844 0.2912,0.4368 4.4769,-2.9843 z m -4.4993,-3.3105 4.4768,3.7306 0.3361,-0.4033 -4.4769,-3.7306 z m 0.4305,6.5133 v -6.715 h -0.525 v 6.715 z M 72.9841,74.5778 77.461,71.5935 77.1698,71.1566 72.6929,74.141 Z M 72.576,67.6444 v 6.715 h 0.525 v -6.715 z m 4.9074,3.529 -4.4769,-3.7306 -0.336,0.4033 4.4768,3.7306 z m -7.3329,6.7786 h -18.816 v 0.525 h 18.816 z M 69.888,58.0545 v 20.16 h 0.525 v -20.16 z M 51.3345,58.317 h 18.816 v -0.525 h -18.816 z m 0.2625,19.8975 v -20.16 h -0.525 v 20.16 z M 55.3665,55.629 h 14.784 V 55.104 H 55.3665 Z M 55.104,37.8945 v 17.472 h 0.525 V 37.8945 Z M 70.1505,37.632 h -14.784 v 0.525 h 14.784 z m 0.2625,17.7345 v -17.472 h -0.525 v 17.472 z m -1.344,-20.16 V 13.9026 h -0.525 v 21.3039 z m 2.4255,-0.2625 h -2.688 v 0.525 h 2.688 z M 71.232,13.9026 v 21.3039 h 0.525 V 13.9026 Z m -2.478,0.2572 c 0.9215,0.1882 1.8715,0.1882 2.793,0 l -0.105,-0.5144 c -0.8522,0.174 -1.7308,0.174 -2.583,0 z m 4.0845,64.3172 h 5.376 v -0.525 h -5.376 z M 72.576,77.5897 v 0.6248 h 0.525 v -0.6248 z m 5.4929,-3.8024 -5.376,3.584 0.2912,0.4368 5.376,-3.5839 z m 0.4081,4.4272 v -4.2087 h -0.525 v 4.2087 z m -0.0945,-9.7916 -4.4768,-3.7308 -0.3361,0.4033 4.4768,3.7308 z M 77.952,61.9096 v 6.715 h 0.525 v -6.715 z m -4.0688,3.2026 4.4769,-2.9842 -0.2912,-0.4368 -4.4769,2.9842 z m -0.3136,-12.1128 4.4768,3.7308 0.3361,-0.4033 -4.4768,-3.7308 z m 4.4993,-3.4042 -4.4769,2.9842 0.2912,0.4368 4.4769,-2.9842 z m 0.4081,6.9334 v -6.715 h -0.525 v 6.715 z m -0.0945,-12.2977 -5.376,-4.4801 -0.3361,0.4034 5.376,4.48 z M 77.952,37.8945 v 6.5381 h 0.525 v -6.5381 z m -5.1135,0.2625 h 5.376 v -0.525 h -5.376 z m 0.2625,1.7955 v -2.058 h -0.525 v 2.058 z" />
</svg>
