<?xml version="1.0" encoding="UTF-8"?>
<!DOCTYPE svg PUBLIC "-//W3C//DTD SVG 1.1//EN" "http://www.w3.org/Graphics/SVG/1.1/DTD/svg11.dtd">
<!-- Creator: CorelDRAW X7 -->
<svg xmlns="http://www.w3.org/2000/svg" xml:space="preserve" width="130px" height="130px" version="1.1" style="shape-rendering:geometricPrecision; text-rendering:geometricPrecision; image-rendering:optimizeQuality; fill-rule:evenodd; clip-rule:evenodd"
viewBox="0 0 130 130"
 xmlns:xlink="http://www.w3.org/1999/xlink"
 enable-background="new 0 0 74.078 72.843"
 xmlns:dc="http://purl.org/dc/elements/1.1/"
 xmlns:cc="http://creativecommons.org/ns#"
 xmlns:rdf="http://www.w3.org/1999/02/22-rdf-syntax-ns#"
 xmlns:svg="http://www.w3.org/2000/svg">
 <defs>
  <style type="text/css">
   <![CDATA[
    .fil1 {fill:#2D588D}
    .fil0 {fill:#2F598B}
   ]]>
  </style>
 </defs>
 <g id="Слой_x0020_1">
  <metadata id="CorelCorpID_0Corel-Layer"/>
  <g id="_1857433753888">
   <path id="path2" class="fil0" d="M32 57l0 31c0,2 2,5 5,5l3 0c1,3 4,6 8,6 3,0 6,-3 7,-6l22 0c0,3 3,6 7,6 4,0 7,-3 8,-6l1 0c3,0 5,-3 5,-5l0 -13c0,0 0,0 0,0 0,0 0,0 0,0 0,0 0,0 0,0 0,0 0,0 0,0 0,0 0,0 0,0 0,0 0,0 0,0 0,0 0,0 0,0 0,0 0,0 0,0 0,0 0,0 0,0 0,0 0,0 0,0 0,0 0,0 0,0 0,-1 0,-1 0,-1 0,0 0,0 0,0l0 0c0,0 0,0 0,0 0,0 0,0 0,0 0,0 0,0 0,0 0,0 0,0 0,0l0 0 0 0c0,0 0,0 0,0 0,0 0,0 0,0l-10 -10c0,-1 -2,-2 -3,-2l-11 0 0 -5c0,-2 -2,-4 -4,-4l-1 0c1,-2 1,-4 1,-6 0,-4 -2,-8 -5,-11 -6,-6 -17,-6 -23,0 -3,3 -5,7 -5,11 0,2 0,4 0,6l0 0c-3,0 -5,2 -5,4zm52 40c-2,0 -4,-1 -5,-3 -1,-2 0,-5 1,-6 2,-2 4,-2 6,-1 2,0 4,2 4,5 0,2 -3,5 -6,5zm1 -32l-11 0 0 9 21 0 -8 -9c-1,0 -1,0 -2,0zm-11 11l22 0 0 12c0,1 -1,2 -3,2l-1 0c-1,-3 -4,-6 -8,-6 -4,0 -7,3 -7,6l-3 0 0 -14zm-31 18c0,2 2,3 5,3 2,0 5,-3 5,-5 0,-3 -1,-5 -3,-5 -2,-1 -5,-1 -6,1 -2,1 -2,4 -1,6zm-4 -47c0,-4 2,-7 4,-10 6,-5 15,-5 21,0 2,3 4,6 4,10 0,2 0,4 -1,6 -1,2 -2,3 -3,5l-11 11 -10 -11c-1,-2 -3,-3 -3,-5 -1,-2 -1,-4 -1,-6zm3 12c-2,-1 -3,-3 -4,-4l-1 0c-2,0 -3,1 -3,2l0 31c0,1 1,2 3,2l3 0c1,-3 4,-6 8,-6 3,0 6,3 7,6l17 0 0 -33c0,-1 -1,-2 -2,-2l-2 0c0,1 -1,3 -3,4l-11 12c0,0 0,0 -1,0 0,0 0,0 0,0l-11 -12z"/>
   <path id="path4" class="fil0" d="M65 47c0,6 -5,11 -12,11 -6,0 -11,-5 -11,-11 0,-7 5,-12 11,-12 7,0 12,5 12,12zm-2 0c0,-5 -5,-10 -10,-10l0 0c-5,0 -9,5 -9,10 0,5 4,9 9,9 5,0 10,-4 10,-9z"/>
  </g>
  <path class="fil1" d="M278 57l-7 0 0 -11c0,-2 0,-4 -1,-5 -1,-1 -2,-1 -4,-1l-21 0 0 7 -10 -9 10 -12 0 7 23 0c3,0 5,1 7,3 2,2 3,4 3,7l0 14zm7 11l-7 0 0 20c0,3 -1,5 -3,7 -2,2 -4,3 -7,3l-26 0 0 -7 24 0c2,0 3,0 4,-1 1,-1 1,-2 1,-4l0 -18 -7 0 10 -10 11 10zm-51 -27l-24 0c-3,0 -4,0 -5,1 -1,1 -1,2 -1,4l0 11 8 0 -12 10 -10 -10 7 0 0 -13c0,-3 1,-5 3,-7 2,-2 4,-3 7,-3l27 0 0 7 0 0zm6 54l-10 10 0 -7 -23 0c-3,0 -5,-1 -7,-3 -2,-2 -3,-4 -3,-7l0 -20 7 0 0 17c0,3 0,4 1,5 1,1 2,1 4,1l21 0 0 -7 10 11z"/>
  <g id="_1857433753824">
   <path class="fil1" d="M216 71c1,1 2,2 4,2 4,0 5,-1 5,-3 0,-2 -2,-3 -6,-3l0 -4c3,0 5,0 5,-3 0,-1 -1,-2 -3,-2 -3,0 -4,1 -4,2l-4 -1c1,-1 2,-4 8,-4 4,0 7,1 7,5 0,2 -1,4 -4,5 3,0 5,2 5,5 0,4 -4,6 -9,6 -4,0 -6,-2 -7,-4l3 -1z"/>
   <path class="fil1" d="M232 76l0 -21 9 0c5,0 8,2 8,7 0,4 -3,7 -8,7l-5 0 0 7 -4 0zm4 -18l0 8 5 0c3,0 4,-2 4,-4 0,-2 -1,-4 -4,-4l-5 0 0 0z"/>
   <polygon class="fil1" points="256,73 266,73 266,76 252,76 252,55 256,55 256,73 "/>
  </g>
 </g>
</svg>
