<?xml version="1.0" encoding="utf-8"?>
<!-- Generator: Adobe Illustrator 16.0.0, SVG Export Plug-In . SVG Version: 6.00 Build 0)  -->
<!DOCTYPE svg PUBLIC "-//W3C//DTD SVG 1.1//EN" "http://www.w3.org/Graphics/SVG/1.1/DTD/svg11.dtd">
<svg version="1.1"
	 id="svg16" xmlns:dc="http://purl.org/dc/elements/1.1/" xmlns:cc="http://creativecommons.org/ns#" xmlns:rdf="http://www.w3.org/1999/02/22-rdf-syntax-ns#" xmlns:svg="http://www.w3.org/2000/svg"
	 xmlns="http://www.w3.org/2000/svg" xmlns:xlink="http://www.w3.org/1999/xlink" x="0px" y="0px" width="81.165px"
	 height="81.165px" viewBox="0 0 81.165 81.165" enable-background="new 0 0 81.165 81.165" xml:space="preserve">
<g>
	<path fill="none" stroke="#2D588D" stroke-width="2" stroke-miterlimit="10" d="M40.444,70l-0.027-12.494
		c0.436-0.359,1.043-0.409,1.874,0c1.353,0.647,1.897,1.43,3.287,1.44c4.504,0.038,4.925-7.207,0.436-7.866
		c-2.233-0.323-4.121,2.444-5.597,1.651l-0.023-11.984l12.032-0.012c1.65-1.537-1.686-3.56-1.327-5.992
		c0.658-4.49,7.903-4.081,7.864,0.435c-0.023,1.376-0.794,1.922-1.452,3.275c-0.545,1.141-0.247,1.848,0.497,2.269l11.638-0.011
		l0.01,11.587c-1.539,1.835-3.584-1.603-6.064-1.241c-4.491,0.67-4.046,7.914,0.458,7.864c1.378-0.025,1.925-0.794,3.276-1.452
		c1.201-0.582,1.922-0.221,2.345,0.61l0.012,11.881l-11.636,0.012c-0.745,0.438-1.042,1.145-0.484,2.283
		c0.658,1.342,1.425,1.888,1.452,3.265c0.048,4.514-7.195,4.948-7.865,0.461c-0.359-2.432,2.977-4.468,1.327-5.994L40.444,70z"/>
	<path fill="none" stroke="#2D588D" stroke-width="2" stroke-miterlimit="10" d="M40.417,70l-12.491,0.012
		c-0.347-0.436-0.41-1.03,0-1.874c0.657-1.35,1.426-1.898,1.438-3.277c0.05-4.515-7.194-4.922-7.852-0.436
		c-0.334,2.234,2.432,4.112,1.65,5.598L11.18,70.037l-0.026-12.034c-1.524-1.647-3.547,1.689-5.991,1.327
		c-4.49-0.655-4.069-7.898,0.434-7.851c1.39,0.011,1.924,0.78,3.274,1.438c1.143,0.559,1.851,0.259,2.283-0.485l-0.013-11.646
		l11.588-0.013c1.823,1.538-1.614,3.598-1.24,6.067c0.668,4.491,7.913,4.057,7.852-0.46c-0.013-1.376-0.794-1.921-1.451-3.265
		c-0.583-1.199-0.223-1.919,0.608-2.354l11.884-0.013l0.013,11.648c0.435,0.746,1.142,1.029,2.282,0.471
		c1.353-0.655,1.886-1.426,3.274-1.436c4.505-0.063,4.938,7.179,0.458,7.852c-2.442,0.357-4.477-2.966-6.004-1.317L40.417,70z"/>
	<path fill="none" stroke="#2D588D" stroke-width="2" stroke-miterlimit="10" d="M11.141,40.786l-0.023-12.492
		c0.434-0.348,1.041-0.411,1.874,0c1.351,0.657,1.897,1.427,3.286,1.44c4.504,0.047,4.913-7.196,0.435-7.853
		c-2.234-0.334-4.118,2.431-5.595,1.649l-0.024-11.983l12.033-0.025c1.65-1.525-1.688-3.548-1.327-5.992
		c0.656-4.49,7.902-4.068,7.853,0.434c-0.014,1.391-0.782,1.923-1.439,3.274c-0.545,1.143-0.248,1.851,0.483,2.284l11.648-0.013
		l0.014,11.587c-1.539,1.823-3.585-1.613-6.065-1.241c-4.493,0.669-4.058,7.914,0.458,7.853c1.375-0.013,1.923-0.795,3.274-1.451
		c1.204-0.583,1.923-0.224,2.347,0.608l0.011,11.883L28.745,40.76c-0.744,0.436-1.042,1.142-0.483,2.285
		c0.658,1.35,1.427,1.884,1.45,3.271c0.051,4.504-7.194,4.938-7.864,0.459c-0.358-2.441,2.966-4.477,1.328-6.003L11.141,40.786z"/>
	<g>
		<path fill-rule="evenodd" clip-rule="evenodd" fill="#2D588D" d="M44.9,23.609c0.655,0.648,1.304,1.305,2.608,1.305
			c2.602,0,3.25-0.656,3.25-1.953c0-1.304-1.297-1.96-3.905-1.96v-2.602c1.953,0,3.257,0,3.257-1.953
			c0-0.648-0.648-1.304-1.953-1.304c-1.953,0-2.602,0.656-2.602,1.304l-2.608-0.648c0.648-0.656,1.305-2.609,5.21-2.609
			c2.602,0,4.562,0.648,4.562,3.257c0,1.305-0.655,2.602-2.608,3.257c1.953,0,3.258,1.297,3.258,3.25
			c0,2.609-2.609,3.914-5.859,3.914c-2.608,0-3.913-1.305-4.562-2.609L44.9,23.609L44.9,23.609z"/>
		<path fill-rule="evenodd" clip-rule="evenodd" fill="#2D588D" d="M55.321,26.867V13.188h5.858c3.258,0,5.211,1.304,5.211,4.562
			c0,2.601-1.953,4.554-5.211,4.554h-3.257v4.563H55.321L55.321,26.867z M57.922,15.142v5.21h3.257c1.953,0,2.608-1.304,2.608-2.601
			c0-1.305-0.655-2.609-2.608-2.609H57.922L57.922,15.142L57.922,15.142z"/>
		<polygon fill-rule="evenodd" clip-rule="evenodd" fill="#2D588D" points="70.952,24.914 77.458,24.914 77.458,26.867 
			68.342,26.867 68.342,13.188 70.952,13.188 		"/>
	</g>
</g>
</svg>
