<?xml version="1.0" encoding="UTF-8"?>
<svg width="100px" height="80px" viewBox="0 0 100 80" version="1.1" xmlns="http://www.w3.org/2000/svg" xmlns:xlink="http://www.w3.org/1999/xlink">
    <!-- Generator: Sketch 59 (86127) - https://sketch.com -->
    <title>Artboard</title>
    <desc>Created with Sketch.</desc>
    <g id="Artboard" stroke="none" stroke-width="1" fill="none" fill-rule="evenodd">
        <g id="wagon" transform="translate(2.000000, 7.000000)" fill="#2D588D" fill-rule="nonzero" stroke="transparent" stroke-width="0.95">
            <path d="M94.7019546,37.5229404 C93.8160036,37.5229404 93.0967092,38.2475016 93.0967092,39.1409766 L93.0967092,42.9161436 L89.8864065,42.9161436 L89.8864065,4.4190333 C89.8864065,2.0467161 87.9591339,0.1043955 85.6060029,0.1043955 L10.7008209,0.120384 C8.3467494,0.120384 6.4204173,2.0613879 6.4204173,4.4350218 L6.4204173,42.9311916 L3.2103027,42.9311916 L3.2103027,39.1560246 C3.2103027,38.2625496 2.4911964,37.5379884 1.6050573,37.5379884 C0.7189182,37.5379884 0,38.2623615 0,39.1558365 L0,49.9411143 C0,50.8345893 0.7191063,51.5591505 1.6052454,51.5591505 C2.4913845,51.5591505 3.2104908,50.8345893 3.2104908,49.9411143 L3.2104908,46.1668878 L6.4207935,46.1668878 L6.4207935,47.2080213 C6.4207935,49.5814671 8.3469375,51.5215305 10.7011971,51.5215305 L11.9230947,51.5215305 C11.9306187,51.537519 11.9326878,51.552567 11.9413404,51.5685555 L15.1516431,58.0393836 C15.4234476,58.5895761 15.9775902,58.9339872 16.5877866,58.9339872 L19.6310565,58.9339872 C20.8081863,63.2815425 24.7406049,66.4822521 29.4286212,66.4833807 C34.1143803,66.4822521 38.0501847,63.2826711 39.2261859,58.9339872 L42.2685153,58.9339872 C42.8762664,58.9339872 43.4305971,58.5882594 43.7046588,58.0393836 L46.9149615,51.5685555 C46.9224855,51.552567 46.9256832,51.537519 46.9332072,51.5215305 L49.3760619,51.505542 C49.3835859,51.5215305 49.385655,51.5365785 49.3943076,51.552567 L52.6046103,58.0233951 C52.8764148,58.5735876 53.4305574,58.9179987 54.0407538,58.9179987 L57.0840237,58.9179987 C58.2611535,63.265554 62.1937602,66.4662636 66.8815884,66.4673922 C71.5675356,66.4662636 75.5031519,63.2666826 76.6791531,58.9179987 L79.7214825,58.9179987 C80.3292336,58.9179987 80.8835643,58.5722709 81.157626,58.0233951 L84.3679287,51.552567 C84.3754527,51.5365785 84.3786504,51.5215305 84.3861744,51.505542 L85.6071315,51.505542 C87.9602625,51.505542 89.8875351,49.5654786 89.8875351,47.1920328 L89.8875351,46.1508993 L93.0978378,46.1508993 L93.0978378,49.9251258 C93.0978378,50.8186008 93.8169441,51.543162 94.7030832,51.543162 C95.5890342,51.543162 96.3081405,50.8186008 96.3081405,49.9251258 L96.3081405,39.1409766 C96.3081405,38.2473135 95.5880937,37.5229404 94.7019546,37.5229404 Z M9.63072,4.4350218 C9.63072,3.8509713 10.1218491,3.3564564 10.7008209,3.3564564 L85.6063791,3.3404679 C86.18742,3.3404679 86.67648,3.8338542 86.67648,4.4192214 L86.67648,37.5564222 L78.1158609,37.5564222 L78.1158609,18.5138672 C78.1158609,17.6203922 77.3967546,16.895831 76.5106155,16.895831 C75.6244764,16.895831 74.9053701,17.6203922 74.9053701,18.5138672 L74.9053701,37.5571746 L58.8542328,37.5571746 L58.8542328,18.5138672 C58.8542328,17.6203922 58.1351265,16.895831 57.2489874,16.895831 C56.3628483,16.895831 55.643742,17.6203922 55.643742,18.5138672 L55.643742,37.5571746 L40.6627056,37.5731631 L40.6627056,18.5289152 C40.6627056,17.6354402 39.9435993,16.9120076 39.0576483,16.9120076 C38.1716973,16.9120076 37.4524029,17.6354402 37.4524029,18.5289152 L37.4524029,37.5722226 L21.4012656,37.5722226 L21.4012656,18.5289152 C21.4012656,17.6354402 20.6821593,16.9120076 19.7960202,16.9120076 C18.9098811,16.9120076 18.1907748,17.6354402 18.1907748,18.5289152 L18.1907748,37.5722226 L9.63072,37.5722226 L9.63072,4.4350218 Z M19.2817548,55.698291 L17.576064,55.698291 L15.5054592,51.5217186 L20.4128001,51.5217186 C19.7591526,52.7833053 19.3620735,54.1970649 19.2817548,55.698291 Z M34.345179,61.1941968 C33.0813351,62.4653766 31.3521318,63.2465559 29.4271164,63.2476845 C27.4998438,63.2465559 25.7717691,62.4665052 24.5090538,61.1941968 C23.2474671,59.9198193 22.4717427,58.1776371 22.4717427,56.2375737 C22.4717427,54.4130037 23.1620697,52.7705145 24.2917983,51.5217186 L34.5624345,51.5217186 C35.6912226,52.7705145 36.3815496,54.4130037 36.3824901,56.2375737 C36.3817377,58.1776371 35.6058252,59.9198193 34.345179,61.1941968 Z M41.2751592,55.698291 L39.5715375,55.698291 C39.4923474,54.1957482 39.0943278,52.7823648 38.4404922,51.5217186 L43.3468926,51.5217186 L41.2751592,55.698291 Z M56.734722,55.6821144 L55.0290312,55.6821144 L52.9584264,51.505542 L57.8657673,51.505542 C57.2119317,52.7671287 56.8148526,54.1808883 56.734722,55.6821144 Z M71.7981462,61.1780202 C70.5343023,62.4492 68.805099,63.2303793 66.8800836,63.2315079 C64.952811,63.2303793 63.2247363,62.4503286 61.962021,61.1780202 C60.7004343,59.9045832 59.9247099,58.1625891 59.9247099,56.2213971 C59.9247099,54.3968271 60.6150369,52.7543379 61.7447655,51.505542 L72.0154017,51.505542 C73.1441898,52.7543379 73.8345168,54.3968271 73.8354573,56.2213971 C73.8343287,58.1625891 73.0586043,59.9047713 71.7981462,61.1780202 Z M78.7277502,55.6821144 L77.0241285,55.6821144 C76.9449384,54.1795716 76.5469188,52.7661882 75.8930832,51.505542 L80.7994836,51.505542 L78.7277502,55.6821144 Z M85.6063791,48.2709744 L10.701009,48.2869629 C10.1220372,48.2869629 9.6309081,47.7926361 9.6309081,47.2082094 L9.6309081,40.8079188 L19.3910409,40.8079188 C19.5215823,40.842153 19.6541928,40.8667941 19.7965845,40.8667941 C19.9378476,40.8667941 20.0727153,40.8432816 20.2021281,40.8079188 L38.6522928,40.8079188 C38.7828342,40.842153 38.9154447,40.8667941 39.0578364,40.8667941 C39.1990995,40.8667941 39.3339672,40.8432816 39.46338,40.8079188 L56.8436319,40.7919303 C56.9741733,40.8261645 57.1067838,40.8508056 57.2491755,40.8508056 C57.3904386,40.8508056 57.5253063,40.8272931 57.6547191,40.7919303 L76.1050719,40.7919303 C76.2356133,40.8261645 76.3682238,40.8508056 76.5106155,40.8508056 C76.6518786,40.8508056 76.7867463,40.8272931 76.9161591,40.7919303 L86.6766681,40.7919303 L86.6766681,47.1922209 L86.6766681,47.1922209 C86.6766681,47.7766476 86.1876081,48.2709744 85.6063791,48.2709744 Z" id="Shape"></path>
        </g>
    </g>
</svg>